# xmcd CD database file generated by Grip 3.1.4
# 
# Track frame offsets:
#       150
#       14427
#       29897
#       40392
#       54287
#       66435
#       85640
#       103497
#       117555
#       128735
#       140172
#       155605
# 
# Disc length: 2260 seconds
# 
# Revision: 3
# Processed by: cddbd v1.5.1PL0 Copyright (c) Steve Scherf et al.
# Submitted via: Grip 3.1.4
# 
DISCID=b408d20c
DTITLE=Doc Watson - Docabilly
DYEAR=1995
DGENRE=Country
TTITLE0=Shake, Rattle And Roll
TTITLE1=Walking After Midnight
TTITLE2=Heartbreak Hotel
TTITLE3=My Special Angel
TTITLE4=Just A Little Too Much
TTITLE5=What Am I Living For
TTITLE6=Bird Dog
TTITLE7=Little Things Mean A Lot
TTITLE8=Train Of Love
TTITLE9=Thunder Road - Sugarfoot Rag
TTITLE10=Love Is A Lonely Street
TTITLE11=Singing The Blues
EXTD=
EXTT0=
EXTT1=
EXTT2=
EXTT3=
EXTT4=
EXTT5=
EXTT6=
EXTT7=
EXTT8=
EXTT9=
EXTT10=
EXTT11=
PLAYORDER=
